<?xml version="1.0" encoding="UTF-8" standalone="no"?>
<!-- Created with Inkscape (http://www.inkscape.org/) -->

<svg
   width="149.99998mm"
   height="200mm"
   viewBox="0 0 149.99998 200"
   version="1.1"
   id="svg5"
   xml:space="preserve"
   inkscape:version="1.2.2 (b0a8486541, 2022-12-01)"
   sodipodi:docname="ray_flower.svg"
   xmlns:inkscape="http://www.inkscape.org/namespaces/inkscape"
   xmlns:sodipodi="http://sodipodi.sourceforge.net/DTD/sodipodi-0.dtd"
   xmlns="http://www.w3.org/2000/svg"
   xmlns:svg="http://www.w3.org/2000/svg"><sodipodi:namedview
     id="namedview7"
     pagecolor="#ffffff"
     bordercolor="#000000"
     borderopacity="0.25"
     inkscape:showpageshadow="2"
     inkscape:pageopacity="0.0"
     inkscape:pagecheckerboard="0"
     inkscape:deskcolor="#d1d1d1"
     inkscape:document-units="mm"
     showgrid="false"
     inkscape:zoom="0.70199214"
     inkscape:cx="319.80415"
     inkscape:cy="551.28822"
     inkscape:window-width="1920"
     inkscape:window-height="1011"
     inkscape:window-x="0"
     inkscape:window-y="0"
     inkscape:window-maximized="1"
     inkscape:current-layer="layer1" /><defs
     id="defs2" /><g
     inkscape:label="Layer 1"
     inkscape:groupmode="layer"
     id="layer1"><path
       style="vector-effect:non-scaling-stroke;fill:none;stroke:#000000;stroke-width:0.264583;stroke-dasharray:none;stroke-opacity:1;-inkscape-stroke:hairline"
       d="M 13.646537,197.75687 C 5.1819668,174.18302 -4.4204526,148.71767 2.2113767,123.54633 8.2923307,102.69648 24.564966,86.777796 32.556092,66.754272 41.267459,47.661 47.945983,27.196525 47.94881,6.1204509 48.81719,-6.7309861 61.321128,3.9816903 66.233513,8.2597165 91.475151,27.826944 116.71457,48.733156 133.67513,75.84609 c 11.22772,18.028232 14.96572,39.3178 16.24209,60.06343 0.64786,21.31214 -2.60424,42.58946 -6.36817,63.48497 -8.28888,2.17654 -17.65463,-5.15653 -26.84223,-5.09945 C 82.921752,187.63737 47.670944,190.21498 14.80301,200 c -0.779366,-0.50786 -0.645807,-1.5733 -1.156473,-2.24313 z"
       id="path248" /></g></svg>
